<?xml version="1.0" encoding="utf-8"?>
<!-- Generator: Adobe Illustrator 16.0.0, SVG Export Plug-In . SVG Version: 6.00 Build 0)  -->
<!DOCTYPE svg PUBLIC "-//W3C//DTD SVG 1.1//EN" "http://www.w3.org/Graphics/SVG/1.1/DTD/svg11.dtd">
<svg version="1.1" id="Layer_1" xmlns="http://www.w3.org/2000/svg" xmlns:xlink="http://www.w3.org/1999/xlink" x="0px" y="0px"
	 width="27.311px" height="32.034px" viewBox="0 0 27.311 32.034" enable-background="new 0 0 27.311 32.034" xml:space="preserve">
<g>
	<g>
		<g>
			<g>
				<g>
					<g>
						<path fill="#62BB46" stroke="#62BB46" stroke-width="0.125" d="M1.415,11.571c0.01-0.017,0.02-0.032,0.029-0.048
							c1.654-2.546,4.262-4.036,6.714-4.036c2.497,0,4.067,1.37,6.132,1.37c2.003,0,3.223-1.372,6.11-1.372
							c2.182,0,4.493,1.188,6.141,3.243c-0.455,0.249-0.866,0.533-1.233,0.844L1.415,11.571z"/>
						<g>
							<path fill="#62BB46" stroke="#62BB46" stroke-width="0.125" d="M18.208,5.191C19.257,3.845,20.054,1.943,19.765,0
								c-1.713,0.118-3.717,1.208-4.887,2.629c-1.063,1.29-1.94,3.204-1.598,5.063C15.15,7.75,17.085,6.633,18.208,5.191z"/>
						</g>
					</g>
				</g>
				<g>
					<g>
						<path fill="#FDB827" stroke="#FDB827" stroke-width="0.125" d="M1.415,11.571c-0.706,1.104-1.155,2.505-1.331,4.08
							l22.918-0.001c0.248-1.521,1.002-2.974,2.306-4.078L1.415,11.571z"/>
					</g>
				</g>
				<g>
					<g>
						<path fill="#F58220" stroke="#F58220" stroke-width="0.125" d="M0.203,19.732c-0.224-1.433-0.26-2.813-0.119-4.081
							l22.918-0.001c-0.224,1.375-0.036,2.804,0.531,4.083L0.203,19.732z"/>
					</g>
				</g>
				<g>
					<g>
						<path fill="#E03A3E" stroke="#E03A3E" stroke-width="0.125" d="M1.324,23.813c-0.541-1.372-0.912-2.749-1.121-4.081
							l23.33,0.001c0.723,1.629,2.059,3.012,3.941,3.724c-0.057,0.124-0.11,0.243-0.163,0.358L1.324,23.813z"/>
					</g>
				</g>
				<g>
					<g>
						<path fill="#963D97" stroke="#963D97" stroke-width="0.125" d="M27.311,23.815c-0.646,1.421-1.021,2.158-1.914,3.52
							c-0.12,0.183-0.245,0.369-0.374,0.559L3.489,27.895c-0.069-0.103-0.138-0.206-0.204-0.308
							c-0.806-1.226-1.458-2.498-1.961-3.774L27.311,23.815z"/>
					</g>
				</g>
				<g>
					<g>
						<path fill="#009CDC" stroke="#009CDC" stroke-width="0.125" d="M25.023,27.893c-1.317,1.93-3.086,4.055-5.232,4.074
							c-2.094,0.02-2.631-1.363-5.472-1.347c-2.841,0.015-3.434,1.371-5.528,1.352c-2.238-0.021-3.977-2.107-5.302-4.077
							L25.023,27.893z"/>
					</g>
				</g>
			</g>
		</g>
	</g>
</g>
</svg>
