<?xml version="1.0" encoding="utf-8"?>
<!-- Generator: Adobe Illustrator 16.0.0, SVG Export Plug-In . SVG Version: 6.00 Build 0)  -->
<!DOCTYPE svg PUBLIC "-//W3C//DTD SVG 1.1//EN" "http://www.w3.org/Graphics/SVG/1.1/DTD/svg11.dtd">
<svg version="1.1" id="Layer_1" xmlns="http://www.w3.org/2000/svg" xmlns:xlink="http://www.w3.org/1999/xlink" x="0px" y="0px"
	 width="27.311px" height="32.034px" viewBox="0 0 27.311 32.034" enable-background="new 0 0 27.311 32.034" xml:space="preserve">
<g>
	<g>
		<path d="M27.352,23.423c-0.748,1.657-1.106,2.396-2.068,3.861c-1.342,2.044-3.236,4.59-5.58,4.612
			c-2.085,0.019-2.62-1.357-5.449-1.342c-2.828,0.017-3.419,1.366-5.503,1.346c-2.345-0.021-4.139-2.32-5.482-4.365
			C-0.486,21.82-0.878,15.11,1.438,11.543C3.084,9.008,5.68,7.525,8.121,7.525c2.486,0,4.049,1.363,6.104,1.363
			c1.994,0,3.209-1.366,6.083-1.366c2.171,0,4.474,1.183,6.114,3.229C21.049,13.697,21.922,21.372,27.352,23.423z"/>
		<g>
			<path d="M18.128,5.239c1.044-1.34,1.838-3.233,1.55-5.167c-1.706,0.118-3.701,1.203-4.866,2.618
				c-1.058,1.284-1.931,3.189-1.59,5.041C15.083,7.787,17.01,6.675,18.128,5.239z"/>
		</g>
	</g>
</g>
</svg>
