<?xml version="1.0" encoding="utf-8"?>
<!-- Generator: Adobe Illustrator 16.0.0, SVG Export Plug-In . SVG Version: 6.00 Build 0)  -->
<!DOCTYPE svg PUBLIC "-//W3C//DTD SVG 1.1//EN" "http://www.w3.org/Graphics/SVG/1.1/DTD/svg11.dtd">
<svg version="1.1" id="Layer_1" xmlns="http://www.w3.org/2000/svg" xmlns:xlink="http://www.w3.org/1999/xlink" x="0px" y="0px"
	 width="210.634px" height="272.466px" viewBox="0 0 210.634 272.466" enable-background="new 0 0 210.634 272.466"
	 xml:space="preserve">
<path fill-rule="evenodd" clip-rule="evenodd" d="M207.86,112.273c0.223,2.594-1.438,4.732-4.314,5.137
	c-1.753,0.246-3.568,0.045-4.65,0.045c-0.79,3.971-1.569,7.885-2.465,12.385c1.68,2.255,3.895,5.225,6.58,8.831
	c-13.996,0.438-17.074-1.916-17.644-12.452c-0.44,0.34-1.034,0.557-1.153,0.928c-1.254,3.889-2.652,7.209-7.406,8.528
	c-1.245,0.344-1.674,5.027-1.813,7.752c-1.351,26.404-4.924,52.43-11.516,78.096c-2.076,8.088-2.028,16.721-2.926,24.852
	c2.73,1.379,4.996,2.523,7.262,3.668c-0.048,0.426-0.096,0.854-0.143,1.281c-3.729,0.658-7.457,1.318-11.679,2.063
	c-0.223,1.025-0.429,2.852-1.049,4.523c-0.437,1.176-1.438,2.143-2.188,3.203c-0.92-1.219-2.271-2.32-2.639-3.686
	c-0.352-1.305,0.323-2.885,0.67-5.15c-1.576,0.412-2.709,0.691-3.83,1.008c-3.25,0.914-6.537,1.725-9.728,2.813
	c-1.566,0.535-3.429,1.242-4.335,2.477c-2.82,3.844-6.548,5.305-11.112,5.658c-12.954,1.004-25.519-1.078-37.95-4.434
	c-2.387-0.645-4.795-1.209-7.574-1.904c-0.202,3.16-0.383,5.984-0.567,8.865c-5.419,0.41-4.848-3.42-5.683-6.277
	c-0.49-1.682-1.53-4.541-2.297-4.531c-1.774,0.02-3.85,1.115-5.24,2.391c-4.754,4.357-9.141,9.119-13.965,13.395
	c-1.067,0.945-3.348,0.523-5.07,0.732c-0.119-0.992-0.239-1.984-0.352-2.916c-1.558-0.256-3.235-0.533-4.913-0.811
	c-0.3-0.494-0.601-0.988-0.9-1.482c9.03-1.277,9.893-8.91,13.326-15.078c-14.116-1.621-27.884-6.381-42.055-0.492
	c-5.019,2.086-6.692,0.645-7.927-4.846c-2.179-9.686,1.399-14.871,11.056-16.588c2.321-0.412,4.867-1.414,6.599-2.947
	c6.475-5.736,5.973-8.406-1.827-11.91c-2.388-1.072-4.829-2.023-7.211-4.127c1.126,0,2.295-0.199,3.37,0.033
	c6.114,1.322,12.158,3.029,18.317,4.059c6.143,1.025,8.044,5.816,10.686,11.102c3.051-2.496,5.902-4.828,9.366-7.664
	c-5.304-2.559-9.668-4.664-14.031-6.771c0.116-0.375,0.233-0.75,0.351-1.127c1.728,0.314,3.455,0.627,5.425,0.984
	c-2.402-2.869-4.699-5.449-6.814-8.17c-6.74-8.666-6.878-18.293-2.863-27.854c5.073-12.082,14.867-18.936,27.143-22.992
	c7.679-2.537,14.307-6.59,15.591-15.953c1.419-10.336,3.469-20.584,5.004-30.907c0.264-1.773-0.355-3.861-1.106-5.566
	c-2.704-6.136-0.491-12.964,5.679-15.167c4.8-1.714,9.971-2.361,14.859-3.866c2.862-0.881,5.992-1.998,8.052-3.99
	c1.341-1.296,2.089-5.634,1.188-6.422c-5.885-5.149-6.2-10.931-5.254-18.29c0.443-3.438,1.65-4.45,2.689-5.178
	c0.772-5.46,1.015-10.106,2.168-14.514c1.168-4.457,3.313-8.651,4.895-13.009c2.055-5.66,6.154-9.262,11.299-12.049
	c2.371-1.285,4.5-3.048,6.645-4.715c6.273-4.879,19.173-4.151,24.919,1.492c4.899,4.812,9.694,9.733,14.708,14.421
	c1.039,0.973,2.842,1.13,4.111,1.596c-0.208,0.571-0.9,1.474-0.693,2.062c1.84,5.27,3.431,10.648,7.855,14.617
	c1.373,1.231,2.377,3.208,2.859,5.027c0.984,3.712,1.11,7.321,4.492,10.452c1.827,1.691,0.965,6.289,1.354,9.942
	c-1.817-1.156-3.345-2.127-4.871-3.098c-0.174,0.205-0.348,0.409-0.521,0.614c1.636,2.001,3.429,3.896,4.876,6.025
	c3.061,4.503,0.786,9.426,0.688,14.133c-0.091,4.299,0.593,8.09,2.972,11.771c2.19,3.393,3.354,7.488,5.739,10.704
	c2.807,3.784,7.359,2.979,9.592-1.165c1.529,4.586,0.641,6.282-5.012,8.265c2.21,0.108,3.604,0.179,5.369,0.265
	c-1.023,0.862-1.705,1.436-2.391,2.007c-4.993-1.965-9.984-3.927-14.316-5.63C197.67,113.748,201.208,115.271,207.86,112.273z
	 M147.764,228.252c0.49-0.066,0.98-0.135,1.47-0.203c1.364-25.453,2.728-50.908,4.108-76.652
	c-18.773,3.432-31.617,15.877-45.77,27.004C122.12,194.555,137.943,208.984,147.764,228.252z"/>
</svg>
