<?xml version="1.0" encoding="utf-8"?>
<!-- Generator: Adobe Illustrator 16.0.0, SVG Export Plug-In . SVG Version: 6.00 Build 0)  -->
<!DOCTYPE svg PUBLIC "-//W3C//DTD SVG 1.1//EN" "http://www.w3.org/Graphics/SVG/1.1/DTD/svg11.dtd">
<svg version="1.1" id="Layer_1" xmlns="http://www.w3.org/2000/svg" xmlns:xlink="http://www.w3.org/1999/xlink" x="0px" y="0px"
	 width="213.48px" height="148.6px" viewBox="0 0 213.48 148.6" enable-background="new 0 0 213.48 148.6" xml:space="preserve">
<path fill-rule="evenodd" clip-rule="evenodd" d="M213.402,141.408c-1.879,0.203-3.757,0.406-5.723,0.619
	c0.76,1.855,1.508,3.684,2.69,6.572c-4.159-3.043-7.231-5.292-10.305-7.541c-0.167,0.342-0.335,0.682-0.501,1.023
	c0.823,2.01,1.646,4.02,2.508,6.119c-5.004-1.977-9.273-3.443-13.324-5.371c-1.703-0.811-3.744-2.342-4.266-3.98
	c-4.385-13.744-8.572-27.556-12.523-41.432c-0.914-3.211-0.695-6.746-0.998-10.131c-0.566-0.004-1.135-0.009-1.701-0.013
	c-0.352,5.446-1.427,10.964-0.9,16.324c1.014,10.317-1.272,20.151-3.398,29.982c-1.05,4.853-4.395,8.382-9.934,9.278
	c-12.377,2.002-23.842,0.816-33.57-8.133c-6.604-6.076-13.331-12.025-20.142-17.869c-4.003-3.434-8.276-6.553-12.802-10.107
	c-1.74,2.024-3.078,3.434-4.25,4.97c-5.287,6.929-12.416,10.839-20.729,12.921c-6.199,1.551-7.976,3.597-8.058,9.987
	c-0.056,4.308-2.095,5.7-5.983,4.999c-3.088-0.557-6.137-1.324-9.201-1.997c0.094,0.504,0.189,1.008,0.283,1.512
	c-2.979,0.813-5.934,2.188-8.944,2.329c-7.757,0.365-15.541,0.283-23.312,0.166c-2.502-0.037-4.993-0.742-7.49-1.142
	c-0.276-0.581-0.553-1.161-0.83-1.742c0.764-0.281,1.539-0.538,2.291-0.847c20.647-8.504,40.386-18.622,57.699-32.939
	c1.372-1.134,2.023-3.173,2.922-4.839c1.021-1.892,1.696-4.017,2.95-5.725c5.467-7.45,10.622-15.212,16.808-22.027
	C87.368,67.199,93.078,62.692,99,58.93c9.627-6.118,19.795-11.384,29.564-18.257c-1.166-0.266-2.332-0.532-4.182-0.955
	c1.456-3.33,2.992-6.844,5.055-11.561c-3.45-6.176,3.279-11.615,5.324-18.002c1.045-3.268,3.756-7.271,6.69-8.399
	c6.003-2.309,12.665-2.645,18.746,0.846c1.114,0.64,2.257,1.42,3.039,2.41c2.981,3.77,5.888,7.604,8.659,11.53
	c0.607,0.862,0.826,2.219,0.742,3.309c-0.273,3.551,0.955,6.027,4.18,7.769c0.869,0.47,1.769,2.606,1.398,3.363
	c-1.959,3.992-0.004,6.203,2.636,7.696c-0.714,0.975-2.122,2.188-1.9,2.716c0.851,2.019,2.226,3.817,4.159,5.126
	c0.152,2.375,0.385,4.748,0.441,7.125c0.16,6.748,0.107,13.503,0.397,20.244c0.413,9.579,0.731,19.181,1.696,28.712
	c0.916,9.059,2.879,18.01,3.861,27.064c0.576,5.305,3.187,7.412,8.164,8.021c5.303,0.647,10.542,1.816,15.809,2.758
	C213.455,140.766,213.427,141.087,213.402,141.408z M133.251,105.918c0.442-0.041,0.885-0.082,1.326-0.123
	c-0.859-7.04-1.68-14.086-2.639-21.111c-0.092-0.669-1.037-1.234-1.614-1.82c-4.095-4.169-4.901-8.689-2.594-14.047
	c0.833-1.932,1.546-3.922,2.198-5.923c1.191-3.65,0.448-5.364-3.648-3.427c-9.727,4.6-19.451,9.207-28.135,13.317
	C109.683,83.674,121.468,94.796,133.251,105.918z"/>
</svg>
