<?xml version="1.0" encoding="utf-8"?>
<!-- Generator: Adobe Illustrator 16.0.0, SVG Export Plug-In . SVG Version: 6.00 Build 0)  -->
<!DOCTYPE svg PUBLIC "-//W3C//DTD SVG 1.1//EN" "http://www.w3.org/Graphics/SVG/1.1/DTD/svg11.dtd">
<svg version="1.1" id="Layer_1" xmlns="http://www.w3.org/2000/svg" xmlns:xlink="http://www.w3.org/1999/xlink" x="0px" y="0px"
	 width="218.365px" height="142.085px" viewBox="0 0 218.365 142.085" enable-background="new 0 0 218.365 142.085"
	 xml:space="preserve">
<path fill-rule="evenodd" clip-rule="evenodd" d="M36.229,132.194c0.628,0.479,1.256,0.958,2.994,2.284
	c-6.03,0-10.891,0.142-15.737-0.06c-2.46-0.102-4.878-1.043-7.344-1.225c-7.026-0.516-9.143-2.171-9.793-9.29
	c-0.938-10.26-1.264-20.577-2.261-30.829C3.19,83.84,1.374,74.687,0.646,65.444c-0.621-7.877-1-15.91-0.159-23.73
	c0.975-9.064,4.242-10.81,12.131-9.447c1.569-6.352,2.95-12.627,4.727-18.787c0.721-2.5,2.064-4.916,3.544-7.086
	c4.122-6.045,8.174-7.97,15.727-5.057c3.297,1.271,6.59,5.977,7.383,9.661c2.181,10.133,2.893,20.573,4.49,30.845
	c0.631,4.056,2.129,7.972,3.121,11.979c0.757,3.06,1.998,6.194,1.854,9.239c-0.273,5.779,1.356,11.586-1.777,17.42
	c-2.021,3.763,4.253,13.57,7.997,16.587c4.295,3.461,6.784,1.753,9.823-1.499c8.047-8.611,16.033-17.305,24.524-25.465
	c11.558-11.107,16.697-10.663,26.723,1.611c8.736,10.697,17.172,21.645,25.992,32.272c3.281,3.954,7.186,7.414,11.002,10.882
	c0.99,0.9,2.787,0.848,4.1,1.471c2.148,1.02,4.738,1.77,6.197,3.452c4.523,5.219,14.494,5.743,19.523,0.989
	c3.566-3.371,8.088-5.801,11.354-9.402c3.68-4.055,6.395-8.979,9.605-13.471c0.965-1.349,2.1-3.404,3.313-3.521
	c1.326-0.129,3.432,1.279,4.164,2.593c3.641,6.53,3.125,19.622-1.912,24.025c-0.979,0.854-1.529,2.548-1.689,3.923
	c-0.49,4.211-0.58,8.467-1.045,12.682c-0.434,3.949-3.34,5.516-6.398,3.77c-9.078-5.182-18.209-3.644-28.076-3.006
	c-18.895,1.219-37.961,2.665-56.877-2.665c-7.557-2.13-16.223-0.727-24.355-0.332c-19.646,0.953-39.171,0.354-58.558-3.172
	c-0.312-0.057-0.657,0.077-0.981,0.116c-1.02-4.087-1.888-8.217-3.102-12.242c-2.335-7.738-3.317-16.787-14.676-16.619
	c-0.233,0.004-0.474-0.418,0.108,0.13c-0.467-4.786-0.852-8.737-1.238-12.688c-0.909,0.039-1.818,0.077-2.729,0.115
	c0,10.167-0.181,20.34,0.174,30.494c0.061,1.748,2.052,4.297,3.745,4.961C24.197,128.741,30.264,130.338,36.229,132.194z
	 M145.675,122.755c0.24-0.591,0.479-1.181,0.719-1.772c-0.283-0.705-0.361-1.697-0.883-2.075
	c-6.313-4.585-12.75-8.997-19.029-13.626c-4.102-3.023-8.381-5.965-11.867-9.622c-2.795-2.934-4.518-6.89-7.006-10.852
	c-8.619,7.233-10.239,18.703-17.457,27.226c9.383,1.857,18.652,2.912,27.895,4.166c2.92,0.396,5.77,1.325,8.648,2.014
	C133.023,119.726,139.349,121.241,145.675,122.755z"/>
</svg>
