<?xml version="1.0" encoding="utf-8"?>
<!-- Generator: Adobe Illustrator 16.0.0, SVG Export Plug-In . SVG Version: 6.00 Build 0)  -->
<!DOCTYPE svg PUBLIC "-//W3C//DTD SVG 1.1//EN" "http://www.w3.org/Graphics/SVG/1.1/DTD/svg11.dtd">
<svg version="1.1" id="Layer_1" xmlns="http://www.w3.org/2000/svg" xmlns:xlink="http://www.w3.org/1999/xlink" x="0px" y="0px"
	 width="178.332px" height="303.878px" viewBox="0 0 178.332 303.878" enable-background="new 0 0 178.332 303.878"
	 xml:space="preserve">
<path fill-rule="evenodd" clip-rule="evenodd" d="M101.619,54.145c7.055,0.663,14.103,1.428,21.167,1.969
	c13.229,1.016,26.478,1.797,39.7,2.898c4.604,0.383,7.07-0.882,7.814-5.831c0.969-6.442,2.6-12.788,4.061-19.149
	c0.303-1.32,1.109-2.525,1.936-4.336c3.813,10.817,1.265,20.976,0.377,30.997c-0.398,4.508-5.251,5.576-9.248,6.267
	c-3.156,0.545-4.086,0.725-3.123,4.975c1.115,4.93-0.66,10.648-1.861,15.869c-0.29,1.26-3.17,2.441-5.01,2.746
	c-14.215,2.349-28.406,2.135-42.543-0.832c-2.547-0.534-5.184-0.638-8.178-0.986c-0.251,5.259-1.655,9.037-7.055,10.393
	c-1.215,0.305-2.074,3.55-2.407,5.557c-1.006,6.053-0.648,12.539-2.716,18.158c-2.934,7.97-7.1,15.602-11.613,22.831
	c-3.018,4.832-4.248,8.425-0.783,13.752c8.809,13.542,11.264,29.331,13.906,44.85c1.51,8.857-0.57,10.582-9.176,13.586
	c-10.002,3.49-19.796,7.58-29.628,11.543c-0.86,0.346-1.774,1.609-1.908,2.555c-1.737,12.324-3.589,24.643-4.889,37.018
	c-0.93,8.861,3.011,16.557,7.585,23.781c0.847,1.338,3.305,1.574,4.861,2.568c1.515,0.967,2.828,2.254,4.229,3.4
	c-1.152,1.133-2.106,2.713-3.488,3.324c-7.463,3.299-12.727,2.611-17.753-5.982c-2.198-3.76-5.527-6.58-11.077-6.986
	c0,4.404,0,8.549,0,12.695c-2.462-5.785,0.981-13.182-6.436-16.869c4.766-5.85,9.483-11.326,8.868-19.295
	c-0.722-9.355-1.338-18.717-2.041-28.666c-6.947,4.457-9.554,13.857-6.854,20.293c0.755,1.797,1.044,4.467,0.207,6.01
	c-0.521,0.959-3.653,1.031-5.448,0.676c-7.345-1.461-10.47-6.295-9.024-13.809c1.154-6.002-0.807-11.063-4.195-16.141
	c-3.01,2.869-5.859,5.584-8.709,8.301c-0.389-0.381-0.777-0.762-1.166-1.143c0.861-0.982,1.796-1.91,2.57-2.957
	c2.283-3.092,4.476-6.248,6.767-9.332c0.463-0.625,1.144-1.389,1.822-1.502c3.077-0.518,6.311-0.414,9.263-1.293
	c5.787-1.723,11.62-3.547,17.013-6.188c1.821-0.893,3.029-4.285,3.385-6.701c1.561-10.592,2.641-21.252,4.04-31.869
	c0.477-3.613,1.665-7.146,1.972-10.764c0.166-1.957-0.354-4.32-1.397-5.974c-9.07-14.376-7.217-27.932,5.569-38.984
	c2.384-2.061,5.01-3.873,7.211-6.107c3.683-3.738,5.547-8.316,4.68-13.631c-1.787-10.943-4.034-21.822-5.449-32.811
	c-0.775-6.015-0.957-12.314,0.003-18.258c0.484-2.998,3.583-6.414,6.418-8.019c6.011-3.401,7.225-4.913,6.214-11.567
	c-2.533-16.684,1.556-24.8,15.403-33.34c6.35-3.916,12.223-0.824,17.139,2.393c3.516,2.301,8.72,4.176,9.039,9.768
	c0.137,2.4-0.107,4.832-0.299,7.24c-0.311,3.902-0.522,7.829-1.169,11.68c-0.337,2.008-0.979,4.693-2.421,5.637
	c-3.047,1.993-2.997,4.177-1.672,6.771c1.756,3.442,1.479,5.6-2.905,6.051c-0.653,0.067-1.225,0.935-1.834,1.432
	C101.448,53.251,101.533,53.698,101.619,54.145z M105.185,72.446c0.172,0.705,0.345,1.41,0.518,2.117
	c12.856,2.74,25.673,5.69,38.581,8.16c12.7,2.432,13.657,1.59,15.959-10.904c0.19-1.032,0.341-2.072,0.401-2.441
	c-8.65,0.602-17.041,1.557-25.443,1.667c-8.604,0.112-17.217-0.714-25.83-0.841C107.987,70.182,106.581,71.661,105.185,72.446z
	 M60.995,207.639c4.853-0.777,8.146-1.061,11.247-1.986c0.715-0.215,1.532-3.201,0.988-3.932c-1.64-2.199-3.926-3.914-6.528-6.352
	C65.008,199.012,63.326,202.627,60.995,207.639z"/>
</svg>
