<?xml version="1.0" encoding="utf-8"?>
<!-- Generator: Adobe Illustrator 16.0.0, SVG Export Plug-In . SVG Version: 6.00 Build 0)  -->
<!DOCTYPE svg PUBLIC "-//W3C//DTD SVG 1.1//EN" "http://www.w3.org/Graphics/SVG/1.1/DTD/svg11.dtd">
<svg version="1.1" id="Layer_1" xmlns="http://www.w3.org/2000/svg" xmlns:xlink="http://www.w3.org/1999/xlink" x="0px" y="0px"
	 width="147.601px" height="237.546px" viewBox="0 0 147.601 237.546" enable-background="new 0 0 147.601 237.546"
	 xml:space="preserve">
<path fill-rule="evenodd" clip-rule="evenodd" d="M85.243,205.027c-1.31,8.342-2.384,16.381-3.881,24.34
	c-1.143,6.072-3.703,8.509-9.969,8.145c-5.531-0.32-11.15-1.64-16.414-3.441c-6.729-2.303-13.303-5.211-19.648-8.439
	c-8.386-4.266-17.265-5.76-26.475-5.893c-1.722-0.025-3.437,0.957-5.191,1.271C2.477,221.22,1.224,221.076,0,221.09
	c0.117-1.07,0.1-2.179,0.389-3.2c0.266-0.938,0.647-2.033,1.346-2.629c5.229-4.463,10.336-9.123,15.947-13.059
	c2.292-1.607,5.449-0.676,5.893,2.98c0.396,3.271,2.153,4.569,5.216,4.877c4.783,0.48,9.597,0.869,14.311,1.754
	c4.846,0.911,9.588,2.372,15.113,3.779c-0.396-7.438-1.113-14.932-1.122-22.426c-0.018-13.956-0.07-27.942,0.836-41.854
	c0.329-5.046,3.357-9.917,5.154-14.866c-7.432-8.259-15.109-16.76-22.741-25.3c-1.438-1.608-2.663-3.405-4.04-5.07
	c-5.179-6.261-5.6-8.081-0.725-14.839c4.165-5.773,9.037-11.065,13.873-16.314c4.036-4.382,8.375-8.503,12.767-12.535
	c3.396-3.117,6.87-6.241,10.705-8.756c2.994-1.964,4.324-3.836,2.31-7.605c-0.561,0.93-1.026,1.701-1.484,2.462
	c-5.551-2.93,1.425-6.274-0.506-9.359c-0.702,0.482-1.311,0.899-1.296,0.889c-0.653-1.726-1.388-3.497-1.987-5.313
	c-0.362-1.097-0.776-2.277-0.717-3.396c0.349-6.599,1.024-13.187,1.184-19.788c0.077-3.2,1.224-4.788,4.225-5.776
	c5.401-1.78,10.6-4.219,16.06-5.748c1.684-0.471,4.305,0.656,5.876,1.86c4.619,3.541,8.953,7.457,13.324,11.31
	c0.602,0.53,0.779,1.54,1.153,2.328c-0.763,0.067-1.525,0.134-2.376,0.208c-0.009,0.117-0.168,0.662-0.042,0.738
	c6.247,3.799,4.582,11.006,6.974,16.456c0.42,0.958-0.334,3.236-1.244,3.826c-2.998,1.944-2.631,3.622-0.7,6.131
	c1.418,1.844,1.93,4.147-1.939,5.451c2.857,0.955,5.695,1.97,8.574,2.853c6.335,1.944,8.064,5.189,8.311,11.741
	c0.158,4.243,2.094,8.433,3.324,12.62c1.148,3.903,3.203,7.725,3.431,11.666c0.29,5.003-3.53,8.427-8.937,10.149
	c-2.102,11.058-4.334,21.758-6.076,32.537c-0.639,3.942-0.277,8.08-0.083,12.115c0.231,4.818,1.237,9.759-4.567,12.87
	c1.859,2.399,3.258,4.653,5.081,6.483c9.978,10.016,17.325,21.832,23.851,34.242c2.652,5.045,4.57,10.256,1.02,15.516
	c-3.322,4.922-8.847,4.958-13.504,3.494c-12.483-3.926-26.265-1.529-38.136-8.122c-1.137-0.632-2.485-0.919-3.768-1.241
	c-0.958-0.24-1.964-0.35-2.954-0.388C86.513,204.814,85.718,204.98,85.243,205.027z M73.215,76.826
	c-7.701,6.651-14.736,12.707-21.744,18.794c-2.028,1.761-2.511,3.583-0.694,6.024c4.859,6.531,9.393,13.307,14.307,19.795
	c1.808,2.386,4.323,4.236,6.234,6.064c7.743-6.906,13.599-13.802,12.068-24.476C82.05,93.714,79.183,85.181,73.215,76.826z
	 M86.731,171.149c0,7.71,0,14.777,0,21.758c6.567,0,13.145,0,19.754,0C99.799,185.542,93.496,178.6,86.731,171.149z"/>
</svg>
