<?xml version="1.0" encoding="utf-8"?>
<!-- Generator: Adobe Illustrator 16.0.0, SVG Export Plug-In . SVG Version: 6.00 Build 0)  -->
<!DOCTYPE svg PUBLIC "-//W3C//DTD SVG 1.1//EN" "http://www.w3.org/Graphics/SVG/1.1/DTD/svg11.dtd">
<svg version="1.1" id="Layer_1" xmlns="http://www.w3.org/2000/svg" xmlns:xlink="http://www.w3.org/1999/xlink" x="0px" y="0px"
	 width="27.311px" height="25.413px" viewBox="0 0 27.311 25.413" enable-background="new 0 0 27.311 25.413" xml:space="preserve">
<path fill="#ED1C24" d="M22.334,0.285c-4.419-1.235-7.213,1.859-8.209,3.247l-0.47,0.655l-0.47-0.655
	c-0.996-1.388-3.79-4.482-8.21-3.247C2.594,0.95,0.874,2.872,0.256,5.558c-0.772,3.358,0.393,6.983,2.968,9.234
	c4.746,4.148,9.994,10.12,10.432,10.621c0.442-0.505,5.703-6.488,10.431-10.621c2.576-2.251,3.741-5.876,2.968-9.234
	C26.437,2.872,24.716,0.95,22.334,0.285z"/>
<path fill="#FFFFFF" d="M23.264,3.446c1.693,1.375,2.55,3.347,2.43,5.151c0.328-1.167,0.277-2.487-0.235-3.746
	c-1.14-2.8-4.121-4.231-6.66-3.199c-0.264,0.108-0.512,0.239-0.745,0.389C19.727,1.692,21.676,2.156,23.264,3.446z"/>
</svg>
