<?xml version="1.0" encoding="utf-8"?>
<!-- Generator: Adobe Illustrator 15.1.0, SVG Export Plug-In . SVG Version: 6.00 Build 0)  -->
<!DOCTYPE svg PUBLIC "-//W3C//DTD SVG 1.1//EN" "http://www.w3.org/Graphics/SVG/1.1/DTD/svg11.dtd">
<svg version="1.1" xmlns="http://www.w3.org/2000/svg" xmlns:xlink="http://www.w3.org/1999/xlink" x="0px" y="0px"
	 width="60.642px" height="77.292px" viewBox="0 0 60.642 77.292" enable-background="new 0 0 60.642 77.292" xml:space="preserve">
<g id="Layer_2">
</g>
<g id="Layer_1">
	<g>
		<path fill-rule="evenodd" clip-rule="evenodd" fill="#FFFFFF" d="M33.167,2.1c-0.328-2.333-3.621-2.655-4.888-1.297
			c-0.266,0.285-0.161,0.751-0.399,1.098c-0.165,0.239-0.752,0.479-1.098,0.897c-0.26,0.315-0.349,0.718-0.599,0.998
			c-0.647,0.726-1.453,0.884-2.095,1.397c-0.775,0.619-0.576,1.424-0.898,2.294c-0.204,0.55-0.885,0.81-0.998,1.297
			c0.458,0.842,0.084,1.39-0.2,2.194c0.239,0.527,0.618,0.912,0.499,1.796c0.294,0.77,1.273,0.855,1.297,1.896
			c-0.296-0.331-0.841-0.501-1.396-0.299c-0.285,0.803-0.253,2.56,0.1,3.791c0.246,0.855,0.895,1.457,0.998,2.394
			c0.033,0.301-0.077,0.694,0,0.998c0.375,1.474,1.584,1.026,1.995,0.1c0.203,0.263,0.343,0.588,0.499,0.898
			c-1.293,0.678-2.132,2.031-3.791,2.494c-1.42,0.396-2.953,0.257-3.891,1.396c-4.784,0.541-5.185,5.591-6.285,9.876
			c-0.474,1.846-0.997,3.781-1.497,5.687c-1.034,3.938-2.088,7.94-2.494,11.571c-1.822,2.096-4.222,2.383-5.387,4.889
			c-0.163,0.351-0.125,0.751-0.299,1.098c-0.285,0.563-0.764,0.853-0.998,1.297c-0.434,0.823-0.723,2.137-0.599,3.491
			c0.134,1.467,1.54,2.913,2.693,4.09c1.529,1.561,4.188,2.289,7.083,2.395c1.149,0.979,2.501,1.755,3.891,2.494
			c-0.2,0.359-0.669,0.889-0.499,1.297c0.476,0.479,2.172-0.297,3.392,0.398c-0.003,0.662-0.881,0.449-0.698,1.297
			c2.135,0.929,3.921-1.361,6.185-0.698c1.185,3.771,4.895,0,7.083-0.199c0.538,0.227,0.507,1.022,0.898,1.396
			c2.764,1.306,4.117-2.667,6.584-1.098c0.253,0.361-0.354,0.811,0,1.297c2.204,0.795,3.067-1.778,4.888-1.496
			c1.146,0.178,1.854,1.707,3.192,0.898c0.348-0.725-0.485-1.15-0.1-1.896c1.316-0.831,1.162,1.173,2.195,0.997
			c1.032-0.175,0.406-1.91,0.897-3.093c2.066-0.706,4.467-1.402,6.783-2.493c1.936-0.912,4.674-2.146,5.288-4.091
			c0.504-1.596-0.496-2.294-0.799-3.192c-0.086-0.257-0.021-0.639-0.1-0.897c-1.035-3.393-4.969-4.448-7.083-6.983
			c0.288-0.377,0.6-0.73,0.799-1.197c-0.31-1.424-0.627-2.795-0.898-4.189c-0.279-1.436-0.769-2.716-1.098-4.09
			c-0.27-1.128-0.136-2.354-0.498-3.492c-0.502-1.574-1.268-2.416-1.396-4.189c-0.325-4.464-1.835-8.67-5.288-9.976
			c-0.88-1.051-2.313-2.072-3.99-1.995c-1.783-1.01-4.133-1.454-5.586-2.793c0.213-0.219,0.31-0.554,0.599-0.698
			c0.354,0.377,0.619,0.843,1.196,0.998c1.216-0.621,0.698-2.289,0.898-3.691c0.251-1.76,1.75-3.082,0.897-4.988
			c-0.056-0.343-0.658-0.14-0.698-0.499c0.607-2.167,2.525-5.213,0-6.684c-0.096-1.068-0.682-1.646-1.596-1.896
			c0.023-0.742-0.642-1.336-1.497-1.496C34.259,3.004,33.824,2.441,33.167,2.1z"/>
		<path fill-rule="evenodd" clip-rule="evenodd" fill="#FFFFFF" d="M29.676,0.604c1.003-0.224,3.145-0.142,2.993,1.197
			c-0.147,1.303-4.381,1.417-4.489,0C28.116,0.968,28.962,0.763,29.676,0.604z M29.676,1.501c0.233,0.031,0.412,0.195,0.599,0
			C30.342,0.964,29.641,1.029,29.676,1.501z M30.873,1.701c0.188,0.022,0.22-0.112,0.399-0.1c0.026-0.326-0.118-0.48-0.399-0.499
			C30.711,1.37,30.644,1.482,30.873,1.701z M30.175,2.1c0.116,0.084,0.267,0.132,0.499,0.1c0.015-0.247,0.019-0.484-0.199-0.499
			C30.434,1.894,30.087,1.78,30.175,2.1z"/>
		<path fill-rule="evenodd" clip-rule="evenodd" d="M30.274,1.501c-0.187,0.195-0.365,0.031-0.599,0
			C29.641,1.029,30.342,0.964,30.274,1.501z"/>
		<path fill-rule="evenodd" clip-rule="evenodd" d="M30.873,1.103c0.281,0.019,0.425,0.173,0.399,0.499
			c-0.179-0.013-0.21,0.122-0.399,0.1C30.644,1.482,30.711,1.37,30.873,1.103z"/>
		<path fill-rule="evenodd" clip-rule="evenodd" d="M30.474,1.701c0.218,0.015,0.214,0.251,0.199,0.499
			c-0.231,0.032-0.383-0.016-0.499-0.1C30.087,1.78,30.434,1.894,30.474,1.701z"/>
		<path fill-rule="evenodd" clip-rule="evenodd" fill="#FFFFFF" d="M33.167,2.399c0.529,0.27,0.672,0.924,0.898,1.497
			c-1.709,2.051-5.703,1.891-7.582,0.1C26.739,3.253,27.23,2.748,27.78,2.3C28.924,3.384,31.88,3.293,33.167,2.399z M30.474,4.195
			c0.312,0.046,0.445-0.087,0.399-0.399C30.598,3.485,30.164,3.92,30.474,4.195z M29.875,4.594c-0.133,0.592,0.714,0.48,0.499-0.1
			C30.143,4.462,29.991,4.51,29.875,4.594z M30.873,4.594c0.019,0.281,0.173,0.425,0.499,0.399c0.07-0.307,0.07-0.192,0-0.499
			C31.141,4.462,30.989,4.51,30.873,4.594z"/>
		<path fill-rule="evenodd" clip-rule="evenodd" d="M30.873,3.796c0.046,0.313-0.087,0.445-0.399,0.399
			C30.164,3.92,30.598,3.485,30.873,3.796z"/>
		<path fill-rule="evenodd" clip-rule="evenodd" fill="#FFFFFF" d="M35.462,5.392c-2.354,2.024-8.038,1.474-10.076-0.399
			c0.183-0.285,0.701-0.758,0.898-0.698c1.718,0.875,3.191,2.016,5.586,1.297C33.413,5.128,34.883,3.045,35.462,5.392z"/>
		<path fill-rule="evenodd" clip-rule="evenodd" d="M30.374,4.495c0.215,0.58-0.632,0.692-0.499,0.1
			C29.991,4.51,30.143,4.462,30.374,4.495z"/>
		<path fill-rule="evenodd" clip-rule="evenodd" d="M31.372,4.495c0.07,0.307,0.07,0.191,0,0.499
			c-0.325,0.026-0.48-0.118-0.499-0.399C30.989,4.51,31.141,4.462,31.372,4.495z"/>
		<path fill-rule="evenodd" clip-rule="evenodd" fill="#FFFFFF" d="M37.058,13.872c-0.762-2.333,0.646-6.42-2.693-6.484
			c-1.344-0.025-2.482,1.226-3.591,1.197c-1.11-0.028-2.116-1.212-3.392-1.297c-1.368-0.091-3.42,0.879-3.492,2.395
			c-0.029,0.622,0.425,1.119,0.399,1.696c-0.032,0.705-0.62,1.166-0.699,2.095c-1.089-0.427-0.459-1.962-1.197-2.693
			c0.61-1.038-0.063-2.434,1.097-3.093c0.03-0.807,0.52-2.562,1.396-2.494c1.287,0.099,2.854,1.589,4.489,1.795
			c0.989,0.125,2.229,0.03,3.192-0.1c1.515-0.205,3.381-1.848,4.29-0.299c0.102,0.173,0.025,0.534,0.199,0.798
			c0.536,0.811,1.385,1.181,1.297,2.694C38.263,11.661,37.105,12.369,37.058,13.872z M25.486,6.689
			c0.367,0.096,0.396-0.49,0.1-0.499C25.498,6.367,25.27,6.481,25.486,6.689z M26.184,6.789c0.261,0.028,0.429-0.037,0.399-0.299
			c-0.128-0.006-0.138-0.128-0.299-0.1C26.252,6.525,26.142,6.581,26.184,6.789z M35.961,6.589c-0.07,0.345,0.35,0.358,0.499,0.2
			C36.529,6.443,36.109,6.431,35.961,6.589z M35.362,7.088c0.366,0.096,0.396-0.49,0.1-0.499C35.374,6.766,35.146,6.88,35.362,7.088
			z M25.985,7.288c0.024-0.142,0.164-0.168,0.199-0.299c-0.135-0.031-0.19-0.142-0.399-0.1C25.757,7.116,25.809,7.264,25.985,7.288z
			 M35.761,7.487c0.174,0.007,0.311-0.022,0.399-0.1c0.03-0.263-0.138-0.327-0.399-0.299C35.761,7.221,35.761,7.354,35.761,7.487z
			 M29.775,7.687c0.131,0.128,0.368,0.128,0.499,0c0.017-0.25-0.153-0.312-0.299-0.399C29.974,7.486,29.703,7.415,29.775,7.687z
			 M31.472,7.787C32.509,7.638,31.104,6.901,31.472,7.787L31.472,7.787z M30.673,7.986c0.427,0.036,0.53-0.562,0-0.499
			C30.545,7.618,30.545,7.855,30.673,7.986z M23.191,8.784c0.192,0.194,0.611,0.104,0.499-0.299c-0.133,0-0.266,0-0.399,0
			C23.295,8.622,23.244,8.704,23.191,8.784z M37.656,8.884c-0.191-0.041-0.078-0.387-0.398-0.299
			C36.878,8.89,37.546,9.359,37.656,8.884z M22.992,9.682c0.56,0.168,0.631-0.461,0.1-0.399C23.061,9.418,22.95,9.473,22.992,9.682z
			 M37.158,9.682c0.56,0.168,0.631-0.461,0.1-0.399C37.227,9.418,37.115,9.473,37.158,9.682z M36.858,10.979
			c0.116,0.084,0.268,0.132,0.499,0.1c0.046-0.313-0.087-0.445-0.399-0.399C36.963,10.817,36.911,10.898,36.858,10.979z
			 M38.056,10.779C37.248,10.307,37.823,11.629,38.056,10.779L38.056,10.779z M22.892,11.178c-0.07,0.345,0.35,0.358,0.499,0.2
			C23.461,11.032,23.042,11.02,22.892,11.178z M23.59,11.178c-0.07,0.345,0.35,0.358,0.499,0.2
			C24.159,11.032,23.74,11.02,23.59,11.178z M37.058,11.777c0.128,0.136,0.489,0.154,0.499-0.1c-0.188-0.011-0.069-0.33-0.299-0.299
			C37.256,11.576,36.985,11.505,37.058,11.777z M23.092,11.977c0.155,0.12,0.389,0.318,0.599,0.1
			C23.689,11.612,23.22,11.638,23.092,11.977z"/>
		<path fill-rule="evenodd" clip-rule="evenodd" d="M25.586,6.19c0.296,0.009,0.267,0.595-0.1,0.499
			C25.27,6.481,25.498,6.367,25.586,6.19z"/>
		<path fill-rule="evenodd" clip-rule="evenodd" d="M26.284,6.39c0.161-0.028,0.171,0.094,0.299,0.1
			c0.03,0.263-0.138,0.327-0.399,0.299C26.142,6.581,26.252,6.525,26.284,6.39z"/>
		<path fill-rule="evenodd" clip-rule="evenodd" d="M36.46,6.789c-0.149,0.158-0.569,0.146-0.499-0.2
			C36.109,6.431,36.529,6.443,36.46,6.789z"/>
		<path fill-rule="evenodd" clip-rule="evenodd" d="M35.462,6.589c0.297,0.009,0.267,0.595-0.1,0.499
			C35.146,6.88,35.374,6.766,35.462,6.589z"/>
		<path fill-rule="evenodd" clip-rule="evenodd" d="M25.785,6.889c0.208-0.042,0.264,0.068,0.399,0.1
			c-0.035,0.131-0.175,0.157-0.199,0.299C25.809,7.264,25.757,7.116,25.785,6.889z"/>
		<path fill-rule="evenodd" clip-rule="evenodd" d="M35.761,7.088c0.262-0.028,0.43,0.036,0.399,0.299
			c-0.089,0.078-0.226,0.107-0.399,0.1C35.761,7.354,35.761,7.221,35.761,7.088z"/>
		<path fill-rule="evenodd" clip-rule="evenodd" d="M29.975,7.288c0.146,0.087,0.316,0.149,0.299,0.399
			c-0.131,0.128-0.368,0.128-0.499,0C29.703,7.415,29.974,7.486,29.975,7.288z"/>
		<path fill-rule="evenodd" clip-rule="evenodd" d="M31.472,7.787C31.104,6.901,32.509,7.638,31.472,7.787L31.472,7.787z"/>
		<path fill-rule="evenodd" clip-rule="evenodd" d="M30.673,7.487c0.53-0.063,0.427,0.535,0,0.499
			C30.545,7.855,30.545,7.618,30.673,7.487z"/>
		<path fill-rule="evenodd" clip-rule="evenodd" d="M23.291,8.485c0.133,0,0.266,0,0.399,0c0.112,0.403-0.307,0.493-0.499,0.299
			C23.244,8.704,23.295,8.622,23.291,8.485z"/>
		<path fill-rule="evenodd" clip-rule="evenodd" d="M37.258,8.584c0.32-0.087,0.207,0.259,0.398,0.299
			C37.546,9.359,36.878,8.89,37.258,8.584z"/>
		<path fill-rule="evenodd" clip-rule="evenodd" d="M23.092,9.283c0.532-0.062,0.46,0.568-0.1,0.399
			C22.95,9.473,23.061,9.418,23.092,9.283z"/>
		<path fill-rule="evenodd" clip-rule="evenodd" d="M37.258,9.283c0.531-0.062,0.46,0.568-0.1,0.399
			C37.115,9.473,37.227,9.418,37.258,9.283z"/>
		<path fill-rule="evenodd" clip-rule="evenodd" d="M36.958,10.68c0.313-0.046,0.445,0.086,0.399,0.399
			c-0.231,0.032-0.383-0.016-0.499-0.1C36.911,10.898,36.963,10.817,36.958,10.68z"/>
		<path fill-rule="evenodd" clip-rule="evenodd" d="M38.056,10.779C37.823,11.629,37.248,10.307,38.056,10.779L38.056,10.779z"/>
		<path fill-rule="evenodd" clip-rule="evenodd" d="M23.391,11.378c-0.149,0.158-0.569,0.146-0.499-0.2
			C23.042,11.02,23.461,11.032,23.391,11.378z"/>
		<path fill-rule="evenodd" clip-rule="evenodd" d="M24.089,11.378c-0.149,0.158-0.569,0.146-0.499-0.2
			C23.74,11.02,24.159,11.032,24.089,11.378z"/>
		<path fill-rule="evenodd" clip-rule="evenodd" d="M37.258,11.378c0.229-0.031,0.11,0.288,0.299,0.299
			c-0.01,0.254-0.371,0.235-0.499,0.1C36.985,11.505,37.256,11.576,37.258,11.378z"/>
		<path fill-rule="evenodd" clip-rule="evenodd" d="M23.69,12.076c-0.21,0.219-0.444,0.021-0.599-0.1
			C23.22,11.638,23.689,11.612,23.69,12.076z"/>
		<path fill-rule="evenodd" clip-rule="evenodd" d="M31.97,18.86c-0.097,0.002-0.077,0.122-0.1,0.199
			c-0.543,0.36-2.234,0.096-2.594,0.1c-0.625-0.244-0.347-1.42,0.399-1.397c0.581-3.875-2.045-6.496-4.888-4.389
			c2.22-3.313,5.944,0.47,5.188,4.29c-0.099,0.433-0.768,0.296-0.798,0.798c0.034,0.747,2.332,0.734,2.494,0.1
			c0.095-0.594-0.561-0.437-0.798-0.698c-0.656-3.419,2.223-7.741,4.589-4.988c-3.325-1.753-4.854,2.896-4.29,4.789
			C31.291,17.957,32.141,17.988,31.97,18.86z"/>
		<path fill-rule="evenodd" clip-rule="evenodd" d="M29.177,14.969c-0.623,1.703-2.846,1.097-3.891,0.199
			C25.667,13.262,28.602,13.216,29.177,14.969z M25.785,14.77c0.941-0.289,2.119,0.341,2.793-0.299
			C27.88,13.746,26.235,13.921,25.785,14.77z M26.982,15.568c-0.405-0.127-0.479-0.585-0.998-0.599
			c-0.001,0.165-0.277,0.056-0.299,0.199c0.889,0.56,2.52,0.933,3.192-0.1C28.149,14.8,28.083,15.893,26.982,15.568z M28.08,15.069
			c-0.729,0.099-0.786-0.061-1.297,0.1C27.177,15.39,27.812,15.456,28.08,15.069z"/>
		<path fill-rule="evenodd" clip-rule="evenodd" d="M35.362,14.77c-0.931,1.092-3.068,1.697-3.891,0.1
			C32.047,13.424,34.748,13.158,35.362,14.77z M31.97,14.57c0.774-0.182,1.987,0.383,2.694-0.2
			C33.977,13.686,32.482,13.795,31.97,14.57z M33.367,15.468c-0.712,0.047-0.826-0.779-1.397-0.599
			c0.561,1.222,2.156,0.665,2.793-0.1C34.096,14.605,34.004,15.426,33.367,15.468z M33.766,14.969c-0.408,0.104-0.815-0.307-1.097,0
			C32.882,15.17,33.586,15.306,33.766,14.969z"/>
		<path fill-rule="evenodd" clip-rule="evenodd" fill="#FFFFFF" d="M34.664,14.371c-0.707,0.583-1.92,0.018-2.694,0.2
			C32.482,13.795,33.977,13.686,34.664,14.371z"/>
		<path fill-rule="evenodd" clip-rule="evenodd" fill="#FFFFFF" d="M28.579,14.47c-0.674,0.641-1.853,0.01-2.793,0.299
			C26.235,13.921,27.88,13.746,28.579,14.47z"/>
		<path fill-rule="evenodd" clip-rule="evenodd" fill="#FFFFFF" d="M36.359,22.65c-0.565-0.066-0.694-0.569-0.997-0.897
			c0.877-1.949,1.541-4.112,1.695-6.784c-0.072-0.272,0.198-0.201,0.2-0.399c0.116-0.017,0.178,0.022,0.199,0.1
			c1.64,1.076-0.297,2.72-0.599,4.389C36.597,20.506,37.411,21.788,36.359,22.65z"/>
		<path fill-rule="evenodd" clip-rule="evenodd" fill="#FFFFFF" d="M23.391,14.869c0.585,1.263,0.5,2.964,0.998,4.39
			c0.422,1.21,1.674,2.515-0.2,2.893c-0.593-2.367-1.413-4.506-1.795-7.083C22.467,14.558,22.996,14.888,23.391,14.869z"/>
		<path fill-rule="evenodd" clip-rule="evenodd" fill="#FFFFFF" d="M34.764,14.77c-0.638,0.764-2.233,1.321-2.793,0.1
			c0.571-0.181,0.685,0.646,1.397,0.599C34.004,15.426,34.096,14.605,34.764,14.77z"/>
		<path fill-rule="evenodd" clip-rule="evenodd" fill="#FFFFFF" d="M32.668,14.969c0.282-0.307,0.689,0.104,1.097,0
			C33.586,15.306,32.882,15.17,32.668,14.969z"/>
		<path fill-rule="evenodd" clip-rule="evenodd" fill="#FFFFFF" d="M28.878,15.069c-0.673,1.032-2.304,0.659-3.192,0.1
			c0.022-0.144,0.298-0.035,0.299-0.199c0.519,0.014,0.592,0.471,0.998,0.599C28.083,15.893,28.149,14.8,28.878,15.069z"/>
		<path fill-rule="evenodd" clip-rule="evenodd" fill="#FFFFFF" d="M26.783,15.168c0.511-0.16,0.568,0,1.297-0.1
			C27.812,15.456,27.177,15.39,26.783,15.168z"/>
		<path fill-rule="evenodd" clip-rule="evenodd" d="M31.272,19.758c0.464,0.268,1.031,0.432,1.297,0.897
			c-1.331,1.005-2.849,0.971-4.19,0C28.962,19.559,30.169,20.08,31.272,19.758z M28.878,20.655c1.178,0.661,2.304,0.645,3.292-0.199
			c-0.752-0.83-1.67,0.247-2.494-0.399C29.265,20.111,29.073,20.385,28.878,20.655z"/>
		<path fill-rule="evenodd" clip-rule="evenodd" fill="#FFFFFF" d="M29.676,20.057c0.824,0.646,1.742-0.431,2.494,0.399
			c-0.988,0.844-2.114,0.86-3.292,0.199C29.073,20.385,29.265,20.111,29.676,20.057z M29.676,20.755
			c0.432,0.149,1.755,0.197,1.497-0.299C30.795,20.677,30.04,20.52,29.676,20.755z"/>
		<path fill-rule="evenodd" clip-rule="evenodd" d="M31.172,20.456c0.258,0.497-1.064,0.449-1.497,0.299
			C30.04,20.52,30.795,20.677,31.172,20.456z"/>
		<path fill-rule="evenodd" clip-rule="evenodd" d="M31.372,22.65c-0.517-0.504-1.391-0.134-1.795-0.1
			C29.524,21.639,31.808,21.8,31.372,22.65z"/>
		<path fill-rule="evenodd" clip-rule="evenodd" fill="#FFFFFF" d="M34.464,23.349c2.066,0.708,2.262,2.968,2.395,5.985
			c0.162,3.676,1.028,7.654,1.297,9.976c-1.183,0.183-3.297,0.338-2.194,1.896c0.491,0.273,1.372,0.158,1.796,0.499
			c-0.266,0.874-2.201,0.362-2.096,1.696c0.061,0.756,0.723,0.655,1.297,1.097c-0.387,0.512-1.431,0.365-1.496,1.197
			c0.199,0.666,1.205,0.524,1.197,1.396c-0.751,0.806-1.102-0.458-1.496-0.897c-0.205-6.122,0.496-10.26,0.199-14.665
			c-0.16-2.373-0.053-5.316-0.898-7.881C34.464,23.548,34.464,23.449,34.464,23.349z"/>
		<path fill-rule="evenodd" clip-rule="evenodd" fill="#FFFFFF" d="M28.978,49.685c0.677,1.75-2.402,2.697-4.29,3.393
			c-1.89,0.695-3.61,1.402-5.188,1.596c1.213-2.844,2.18-5.934,5.487-6.684C25.781,49.343,27.392,50.481,28.978,49.685z"/>
		<path fill-rule="evenodd" clip-rule="evenodd" fill="#FFFFFF" d="M33.167,54.274c-0.021,0.599,2.234,0.974,2.294,1.497
			c0.068,0.589-2.35,1.591-2.494,2.194c-3.753,0.735-8.528,0.45-12.969,0.499c-0.33-0.834-0.73-1.597-1.197-2.295
			c0.153-0.379,0.402-0.662,0.499-1.097c1.79-0.346,3.014-0.768,4.489-1.197c0.573-0.167,1.883,1.811,2.294,2.194
			c0.657,0.613,1.766,1.61,2.693,1.696C30.897,57.962,32.31,55.921,33.167,54.274z"/>
		<path fill-rule="evenodd" clip-rule="evenodd" fill="#FFFFFF" d="M18.403,56.27c0.54,0.997,1.553,2.224,1.197,2.992
			c-0.665,0-1.33,0-1.995,0C17.866,58.259,18.211,57.341,18.403,56.27z"/>
		<path fill-rule="evenodd" clip-rule="evenodd" fill="#FFFFFF" d="M45.238,59.96c-0.19-0.042-0.43-0.036-0.399-0.299
			C45.12,59.559,45.265,59.548,45.238,59.96z"/>
		<path fill-rule="evenodd" clip-rule="evenodd" fill="#FFFFFF" d="M45.937,60.161c-0.133,0.261-0.442,0.19-0.698,0.1
			C45.318,59.908,45.751,59.906,45.937,60.161z"/>
		<path fill-rule="evenodd" clip-rule="evenodd" fill="#FFFFFF" d="M47.034,60.859c-0.527,0.104-1.03,0.173-1.098-0.399
			C46.353,60.272,46.955,60.416,47.034,60.859z"/>
		<path fill-rule="evenodd" clip-rule="evenodd" fill="#FFFFFF" d="M47.732,61.856c-0.531-0.134-1.313-0.017-1.396-0.599
			C46.979,61.028,47.711,61.176,47.732,61.856z"/>
		<path fill-rule="evenodd" clip-rule="evenodd" fill="#FFFFFF" d="M48.031,63.552c-0.16,0.448-0.993,0.321-1.297,0.1
			C47.131,63.209,47.636,63.167,48.031,63.552z"/>
		<path fill-rule="evenodd" clip-rule="evenodd" d="M34.364,3.896c0.855,0.16,1.521,0.754,1.497,1.496
			c0.914,0.25,1.5,0.827,1.596,1.896c2.525,1.471,0.607,4.518,0,6.684c0.04,0.358,0.643,0.155,0.698,0.499
			c0.853,1.907-0.646,3.228-0.897,4.988c-0.2,1.402,0.317,3.07-0.898,3.691c-0.577-0.154-0.843-0.62-1.196-0.998
			c-0.289,0.144-0.386,0.479-0.599,0.698c1.453,1.34,3.803,1.783,5.586,2.793c1.678-0.077,3.11,0.944,3.99,1.995
			c3.453,1.306,4.963,5.512,5.288,9.976c0.129,1.773,0.895,2.615,1.396,4.189c0.362,1.138,0.229,2.364,0.498,3.492
			c0.329,1.374,0.818,2.654,1.098,4.09c0.271,1.395,0.589,2.766,0.898,4.189c-0.199,0.467-0.511,0.82-0.799,1.197
			c2.114,2.535,6.048,3.591,7.083,6.983c0.079,0.259,0.014,0.641,0.1,0.897c0.303,0.898,1.303,1.597,0.799,3.192
			c-0.614,1.944-3.353,3.179-5.288,4.091c-2.316,1.091-4.717,1.787-6.783,2.493c-0.491,1.183,0.135,2.918-0.897,3.093
			c-1.033,0.176-0.879-1.828-2.195-0.997c-0.386,0.745,0.447,1.171,0.1,1.896c-1.339,0.809-2.046-0.721-3.192-0.898
			c-1.82-0.282-2.684,2.291-4.888,1.496c-0.354-0.486,0.253-0.936,0-1.297c-2.467-1.569-3.82,2.403-6.584,1.098
			c-0.391-0.374-0.36-1.17-0.898-1.396c-2.188,0.199-5.898,3.97-7.083,0.199c-2.264-0.663-4.05,1.627-6.185,0.698
			c-0.183-0.848,0.695-0.635,0.698-1.297c-1.22-0.695-2.916,0.08-3.392-0.398c-0.17-0.408,0.298-0.938,0.499-1.297
			c-1.389-0.739-2.741-1.516-3.891-2.494C7.627,70.729,4.968,70,3.439,68.44c-1.153-1.177-2.559-2.623-2.693-4.09
			c-0.124-1.354,0.165-2.668,0.599-3.491c0.233-0.444,0.713-0.733,0.998-1.297c0.175-0.347,0.136-0.747,0.299-1.098
			c1.165-2.506,3.564-2.793,5.387-4.889c0.406-3.631,1.46-7.633,2.494-11.571c0.5-1.905,1.023-3.841,1.497-5.687
			c1.1-4.286,1.5-9.336,6.285-9.876c0.938-1.139,2.47-1,3.891-1.396c1.659-0.463,2.498-1.816,3.791-2.494
			c-0.156-0.31-0.296-0.635-0.499-0.898c-0.411,0.926-1.621,1.374-1.995-0.1c-0.077-0.304,0.033-0.697,0-0.998
			c-0.103-0.937-0.752-1.539-0.998-2.394c-0.353-1.231-0.384-2.988-0.1-3.791c0.555-0.202,1.101-0.032,1.396,0.299
			c-0.023-1.041-1.002-1.126-1.297-1.896c0.119-0.884-0.26-1.269-0.499-1.796c0.284-0.805,0.658-1.352,0.2-2.194
			c0.113-0.487,0.794-0.747,0.998-1.297c0.322-0.87,0.123-1.676,0.898-2.294c0.642-0.513,1.448-0.671,2.095-1.397
			c0.25-0.28,0.339-0.682,0.599-0.998c0.346-0.419,0.933-0.659,1.098-0.897c0.238-0.346,0.133-0.813,0.399-1.098
			c1.267-1.358,4.561-1.037,4.888,1.297C33.824,2.441,34.259,3.004,34.364,3.896z M28.18,1.801c0.107,1.417,4.341,1.303,4.489,0
			c0.152-1.338-1.989-1.421-2.993-1.197C28.962,0.763,28.116,0.968,28.18,1.801z M27.78,2.3c-0.55,0.448-1.042,0.954-1.297,1.696
			c1.879,1.791,5.873,1.951,7.582-0.1c-0.226-0.573-0.369-1.227-0.898-1.497C31.88,3.293,28.924,3.384,27.78,2.3z M31.871,5.592
			c-2.395,0.719-3.869-0.422-5.586-1.297c-0.197-0.06-0.715,0.413-0.898,0.698c2.038,1.873,7.721,2.423,10.076,0.399
			C34.883,3.045,33.413,5.128,31.871,5.592z M38.354,10.081c0.088-1.513-0.761-1.883-1.297-2.694
			c-0.174-0.264-0.098-0.625-0.199-0.798c-0.908-1.548-2.774,0.095-4.29,0.299c-0.963,0.13-2.203,0.225-3.192,0.1
			c-1.635-0.207-3.202-1.696-4.489-1.795c-0.877-0.068-1.367,1.687-1.396,2.494c-1.16,0.659-0.487,2.055-1.097,3.093
			c0.737,0.731,0.107,2.267,1.197,2.693c0.079-0.929,0.667-1.39,0.699-2.095c0.026-0.577-0.428-1.074-0.399-1.696
			c0.071-1.516,2.124-2.485,3.492-2.395c1.276,0.085,2.282,1.269,3.392,1.297c1.108,0.029,2.247-1.223,3.591-1.197
			c3.34,0.064,1.932,4.152,2.693,6.484C37.105,12.369,38.263,11.661,38.354,10.081z M24.189,16.565
			c0.191,2.673,1.662,5.755,3.292,7.083c0.987,0.804,2.84,1.45,4.29,0.998c3.174-0.991,5.213-6.463,4.888-10.375
			c-0.074-0.885-0.483-1.655-0.499-2.594c-0.017-1.016,0.361-1.742,0-2.594c-1.13-2.663-3.472-0.065-5.387-0.1
			c-1.237-0.022-2.432-1.161-3.791-1.097c-0.731,0.034-2.269,0.239-2.594,1.396c-0.22,0.784,0.381,1.388,0.299,2.195
			c-0.076,0.747-0.711,0.932-0.798,1.796C24.54,14.209,24.101,15.327,24.189,16.565z M36.858,19.059
			c0.302-1.669,2.238-3.313,0.599-4.389c-0.021-0.078-0.083-0.116-0.199-0.1c-0.002,0.198-0.272,0.126-0.2,0.399
			c-0.154,2.672-0.818,4.834-1.695,6.784c0.303,0.329,0.432,0.832,0.997,0.897C37.411,21.788,36.597,20.506,36.858,19.059z
			 M22.394,15.069c0.382,2.577,1.203,4.716,1.795,7.083c1.874-0.378,0.622-1.683,0.2-2.893c-0.498-1.426-0.413-3.127-0.998-4.39
			C22.996,14.888,22.467,14.558,22.394,15.069z M23.092,27.24c-0.42,5.75,6.705,12.107,11.971,7.781
			c-0.067-2.665,0.071-4.026-0.299-6.584c-0.909,6.288-10.336,3.496-9.677-2.194c0.177-1.524,1.357-2.376,0.599-3.292
			C24.624,24.246,23.238,25.239,23.092,27.24z M25.386,26.242c-0.416,2.786,2.51,5.229,4.789,5.486
			c4.462,0.505,5.101-4.588,3.99-8.18c-1.205,0.86-2.614,1.944-4.688,1.596c-1.369-0.229-2.443-1.283-3.192-2.095
			C26.703,24.831,25.533,25.259,25.386,26.242z M34.464,23.648c0.846,2.564,0.738,5.508,0.898,7.881
			c0.297,4.405-0.404,8.542-0.199,14.665c0.395,0.439,0.745,1.703,1.496,0.897c0.008-0.872-0.998-0.73-1.197-1.396
			c0.065-0.832,1.109-0.686,1.496-1.197c-0.574-0.441-1.236-0.341-1.297-1.097c-0.105-1.334,1.83-0.822,2.096-1.696
			c-0.424-0.341-1.305-0.226-1.796-0.499c-1.103-1.558,1.012-1.713,2.194-1.896c-0.269-2.321-1.135-6.3-1.297-9.976
			c-0.133-3.017-0.328-5.278-2.395-5.985C34.464,23.449,34.464,23.548,34.464,23.648z M37.457,33.724
			c0.265,2.206,1.444,4.325,0.998,5.786c-0.835,0.467-2.055,0.073-2.494,0.798c0.105,1.091,1.876,0.518,2.194,1.396
			c-0.084,1.279-2.26,0.467-2.294,1.796c0.343,0.737,1.482,0.096,1.396,1.297c-0.246,0.52-1.424,0.106-1.396,0.897
			c0.398,0.661,1.136,0.273,1.196,1.098c0.046,0.604-0.507,0.683-0.897,1.197c0.852,0.91,1.493,2.031,1.995,3.292
			c0.688-0.542,1.366-1.095,2.395-1.297c2.245-1.978,3.885-4.562,5.088-7.582c0.14,1.024-0.495,2.145-0.998,3.093
			c-0.901,1.7-2.193,3.087-3.392,4.29c1.214,1.999,3.127,3.632,4.888,4.987c0.579,0.445,1.417,0.871,1.597,1.597
			c-1.149-0.094-1.934-1.145-2.793-1.896c-1.514-1.324-3.107-2.583-3.991-4.39c-0.815,0.514-2.111,0.549-2.394,1.596
			c0.328,0.304,1.069,0.194,1.596,0.3c1.685,0.825,1.126,2.74,1.597,4.09c0.854,2.45,4.141,3.922,7.382,3.691
			c1.159-0.083,2.15-0.746,3.093-0.698c-1.703,1.355-3.709,1.289-5.188,0.997c-0.09,0.657,1.203,0.791,1.098,1.796
			c1.543,0.435,0.816,2.263-0.499,2.395c-0.791,0.079-1.691-0.655-2.894-0.798c-0.913-0.109-1.95,0.101-2.793,0
			c-1.024-0.123-1.953-0.563-2.893-0.698c-1.82-0.264-3.384,0.046-4.689,0.598c2.082,1.22,2.677,3.174,4.39,4.988
			c1.729,1.832,5.832,4.169,9.378,3.592c0.824-0.135,2.059-0.566,3.191-0.898c1.028-0.301,2.076-0.79,2.993-1.197
			c3.146-1.395,7.575-3.492,4.988-6.883c-0.692-4.362-4.825-5.284-7.282-7.881c-2.625,1.064-4.463-0.925-5.887-2.195
			c-0.809-0.722-1.763-1.348-1.795-2.095c1.699,1.261,3.706,4.509,6.584,4.29c0.776-0.06,1.914-0.823,1.995-1.597
			c0.04-0.382-0.223-0.769-0.3-1.097c-0.474-2.032-0.583-4.831-1.596-6.585c-0.778,2.406-3.665,3.869-6.285,3.492
			c2.408-0.491,4.759-0.98,5.687-2.894c1.051-2.168-0.046-4.795-0.997-6.783c-0.354,2.31-1.16,4.69-2.594,5.586
			c0.683-1.637,1.96-3.379,2.194-5.486c0.547-4.926-1.592-9.855-4.489-11.672c2.805,4.364,1.878,11.755-0.499,15.563
			c-0.993,1.592-2.688,2.571-3.292,4.29c-0.155,0.565,0.369,1.203-0.199,1.297c-0.563-1.993,1.017-3.324,1.896-4.39
			c1.584-1.923,2.827-4.332,3.292-7.282c0.724-4.599-0.678-9.599-3.791-11.273c-0.602,0.036-0.896-0.236-1.496-0.2
			c0.887,1.832,1.662,3.698,1.896,5.985c0.642,6.29-2.649,10.576-2.993,16.36c0.055,0.505,0.633,0.753,0.199,1.197
			c-0.667-0.71-0.628-1.981-0.498-3.192c0.495-4.657,3.644-8.665,2.893-14.665c-0.321-2.566-1.155-5.76-3.592-6.384
			c1.627,2.646,2.653,7.9,2.096,12.171c-0.145,1.104-0.552,2.563-1.297,3.092c1.79-4.776,1.232-13.968-2.693-16.36
			c-0.118,0.016-0.283-0.017-0.3,0.1C37.893,26.492,37.057,30.378,37.457,33.724z M18.902,26.441
			c2.106,1.391,3.21,4.276,3.891,7.083c0.567,2.339,0.23,5.162,1.995,6.784c0.175-0.923,0.335-1.86,1.396-1.896
			c0.047-1.217,1.3-1.228,2.095-1.696c1.03,0.332,0.849,2.301,0.698,3.492c0.233,0,0.465,0,0.698,0
			c0.631,0.998,1.392,1.866,1.995,2.893c-0.596,0.31,0.099,0.994,0.299,1.396c0.128-0.86-0.184-1.925,0.898-2.394
			c0.736,0.48,0.977,1.456,0.998,2.394c0.34-0.181,0.479,0.014,0.897,0c-0.014-3.014-0.091-6.598,0.399-8.778
			c-6.874,4.541-15.132-5.2-11.573-10.874C22.42,25.77,19.913,25.357,18.902,26.441z M22.293,33.125
			c-0.593-2.492-1.471-4.286-2.793-5.886c-1.879-1.318-4.344,0.551-4.888,1.995c1.835-1.348,3.219,1.161,3.99,2.394
			c1.553,2.485,2.693,4.835,3.791,7.382c0.564,1.31,0.861,2.987,2.194,3.392c0.231-0.367,0.035-1.162,0.1-1.695
			C22.889,39.332,22.931,35.804,22.293,33.125z M23.79,42.703c-1.791-3.464-3.424-7.31-5.487-10.675
			c-0.624-1.018-1.351-2.766-2.793-2.693c-1.93,0.097-2.126,3.473-2.593,5.287c-0.398,1.546-0.655,3.029-1.098,4.29
			c0.192,0.178,0.531-0.178,0.898-0.3c2.948-0.981,5.42,0.908,6.684,2.494c1.272,1.596,2.133,4.318,4.889,3.592
			c0.283-0.35,0.348-0.916,0.299-1.597C24.52,42.771,23.827,43.064,23.79,42.703z M28.18,37.016c-1.34,1.154-0.506,4.9-0.898,6.684
			c-0.78-1.794,0.167-4.663-0.1-6.185c-0.719,0.301-0.804,1.06-0.897,1.795c-0.261,2.046,0.089,2.585,0,4.789
			c-0.79-0.481-0.396-1.317-0.399-1.796c-0.003-0.635-0.049-1.269,0-2.095c0.281-0.393,0.478-1.302-0.1-1.497
			c-0.872,0.856-0.72,2.875-0.798,4.59c-0.099,2.166,0.055,4.296,0.998,5.387c0.741,0.857,2.183,1.244,2.993,0.299
			c0.029-0.694-0.404-0.926-0.299-1.695c0.636-0.654,1.451-0.003,1.796,0.498c-0.096-1.595-0.21-3.472-0.1-3.99
			c-0.424-0.044-0.738-0.721-1.097-0.498c0.636,1.151-0.25,2.203-0.599,3.191c0.094-1.303,0.727-2.503,0.499-4.09
			c0.472,0.645,1.504,1.422,2.095,0.599c-0.806-0.394-1.138-2.439-1.995-2.294c-0.891,0.15-0.254,1.729-0.599,2.693
			C27.889,41.495,29.788,38.265,28.18,37.016z M19.201,41.605c-1.703-2.137-4.91-3.979-7.682-1.796
			c-0.838,4.482-2.595,8.578-2.993,13.168c2.303-3.112,4.147-6.702,8.479-6.883c1.672-0.07,2.219,0.655,3.492,0.997
			c0.274,0.074,0.615-0.035,0.898,0c1.208,0.151,2.366,0.931,3.392,0.698c-0.008-0.639-0.471-1.646-0.299-2.793
			C21.616,46.129,20.629,43.397,19.201,41.605z M33.167,46.194c-0.084-1.181,1.205-3.21-0.499-3.691
			c-0.694,1.984-0.861,4.879,0.399,6.484c-1.671-0.89-0.971-4.15-2.195-5.486c-0.79,1.931,0.265,4.754,0.599,6.185
			c-0.25-0.35-0.434-1.292-0.798-1.196c-0.013,0.173,0.275,1.347,0.299,1.695c-1.105-0.457-0.266-2.859-1.896-2.793
			c-0.229,0.496,0.216,0.668,0.299,1.197c0.147,0.935-0.224,2.148,0.2,2.893c0.367,0.646,2.19,1.387,3.192,1.995
			c1.057,0.642,2.221,1.751,3.192,2.095c1.453,0.516,3.557-0.013,4.888,0.101c0.002-0.242,0.253-0.371,0.3-0.599
			c0.415-2.019-1.185-2.365-2.594-2.894c-0.581-0.218-1.32-2.032-1.896-2.992c-0.979-1.635-1.872-2.615-2.195-4.39
			c-1.968,0.67-0.23,2.678,0.499,3.491C34.211,47.645,33.253,47.394,33.167,46.194z M14.512,47.091
			c-3.376,1.714-4.451,5.742-7.681,8.181c-1.919,1.449-4.004,2.49-4.19,4.889c2.376-2.074,6.942-2.896,10.475-1.696
			c0.681,0.231,1.292,0.778,1.995,0.897c0.896,0.152,1.468-0.232,1.995,0c0.601-2.636,1.884-4.446,2.893-6.684
			c0.943-2.092,1.633-3.783,3.492-4.589c-2.556-1.056-5.479-0.035-6.784,1.496c-1.018,1.196-1.649,3.013-2.693,4.29
			c-0.944,1.154-2.015,2.034-3.292,2.494c0.813-1.092,1.806-1.56,2.693-2.494c1.179-1.242,1.531-2.819,2.494-4.19
			c0.899-1.279,2.509-1.697,3.99-2.394C18.128,46.402,16.21,46.23,14.512,47.091z M24.987,47.99c-3.307,0.75-4.273,3.84-5.487,6.684
			c1.577-0.193,3.297-0.9,5.188-1.596c1.888-0.695,4.967-1.643,4.29-3.393C27.392,50.481,25.781,49.343,24.987,47.99z
			 M28.878,51.581c-1.445,0.684-2.791,1.466-4.29,2.096c0.915,1.238,2.376,2.933,3.891,3.491c1.928,0.71,3.67-1.647,4.489-2.993
			C31.54,53.375,30.364,52.322,28.878,51.581z M28.778,57.766c-0.927-0.086-2.037-1.083-2.693-1.696
			c-0.411-0.384-1.722-2.361-2.294-2.194c-1.476,0.43-2.699,0.852-4.489,1.197c-0.097,0.435-0.346,0.718-0.499,1.097
			c0.466,0.698,0.867,1.461,1.197,2.295c4.44-0.049,9.215,0.236,12.969-0.499c0.144-0.604,2.563-1.605,2.494-2.194
			c-0.061-0.523-2.315-0.898-2.294-1.497 M42.146,59.861c-1.347-0.283-2.854-1.35-3.591-2.194c-0.373-0.428-0.456-1.046-0.898-1.297
			c-1.979-1.127-3.108,1.052-4.09,1.695c-0.852,0.559-1.654,0.765-2.394,1.297c-0.888,2.139-1.774,4.278-2.594,6.484
			c3.688-1.597,6.105-3.993,10.475-3.491c0.968,0.111,1.969,0.573,3.092,0.698c1.445,0.16,3.43-0.291,4.29,0.399
			c0.362-0.327,0.474-0.608,0.997-0.599c0.512,0.009,0.676,0.694,0.898,0.398c0.893-0.988-1.217-1.315-1.995-1.297
			C46.014,59.826,44.146,60.282,42.146,59.861z M44.44,59.662c-1.01-1.186-2.402-1.987-3.093-3.492
			c-1.031,0.066-2.327-0.132-3.192,0.101C39.401,58.219,41.585,59.64,44.44,59.662z M18.403,56.27
			c-0.191,1.071-0.537,1.989-0.798,2.992c0.665,0,1.33,0,1.995,0 M22.792,59.362c-2.345,0.934-3.824,3.354-5.986,3.99
			c-0.492,0.146-2.008,0.481-2.194-0.199c4.319-0.07,5.273-3.506,8.679-4.489c-1.031,0-2.062,0-3.092,0
			c-0.32,0.094-0.023,0.671-0.499,0.798c-1.262,0.111-2.882,0.2-4.688,0.399c-1.303,1.147-3.676,1.82-5.586,2.395
			c-0.65,0.195-1.325,0.483-1.796,0.299c2.181-1.111,5.149-1.436,6.883-2.992C9.826,57.32,0.54,58.494,1.344,64.849
			c1.34,2.661,5.508,3.932,9.178,2.893c0.808-0.229,1.53-1.056,2.195-0.599c-2.752,1.729-6.232,1.946-9.078,0.399
			c0.874,1.218,2.754,2.315,4.589,2.693c4.064,0.837,9.492,0.582,12.071-1.496c1.371-1.104,2.292-2.88,3.392-4.19
			c0.154-0.184,0.594-0.929,0.998-0.398c-1.573,1.414-2.58,3.676-4.489,5.088c-2.199,1.626-5.989,2.252-8.479,1.995
			c4.535,3.916,11.225,1.155,14.465-2.594c2.473-2.862,3.014-7.004,5.188-10.076c0.056,0,0.113-0.081,0-0.1
			C28.842,59.147,24.755,58.582,22.792,59.362z M44.839,59.662c-0.03,0.263,0.209,0.257,0.399,0.299
			C45.265,59.548,45.12,59.559,44.839,59.662z M45.238,60.26c0.256,0.091,0.565,0.161,0.698-0.1
			C45.751,59.906,45.318,59.908,45.238,60.26z M45.937,60.459c0.067,0.572,0.57,0.504,1.098,0.399
			C46.955,60.416,46.353,60.272,45.937,60.459z M46.336,61.257c0.083,0.582,0.865,0.465,1.396,0.599
			C47.711,61.176,46.979,61.028,46.336,61.257z M46.734,63.652c0.304,0.222,1.137,0.349,1.297-0.1
			C47.636,63.167,47.131,63.209,46.734,63.652z M37.856,67.841c-1.19-1.525-2.156-3.232-3.791-4.289c-0.066,0-0.133,0-0.199,0
			c-0.351,0.281-0.814,0.449-1.098,0.798c1.29,2.252,2.624,4.841,4.39,6.884c0.986,1.142,3.091,3.101,4.489,3.69
			c0.29,0.123,0.714,0.074,0.997,0.2c0.728,0.321,1.386,1.472,2.494,0.997c-0.518-1.094-0.281-2.269,0.798-2.194
			c0.806,0.055,0.735,1.192,1.696,1.097c0.329-0.635,0.157-1.771,0.199-2.693C43.216,72.238,40.031,70.63,37.856,67.841z
			 M32.27,64.45c-0.831,0.499-1.705,0.955-2.594,1.396c-0.179,3.898-1.13,7.576-2.394,10.275c0.797-1.016,3.548-1.746,3.691,0.3
			c0.574,0.313,1.248,0.127,1.995,0.1c1.23-0.861,3.607-2.617,4.889-0.698c-0.006,0.326-0.284,0.381-0.2,0.798
			c1.604,0.258,2.54-0.975,3.592-1.597C37.09,72.665,34.594,68.643,32.27,64.45z M26.384,69.138
			c-2.489,2.666-6.007,4.575-11.273,4.39c-0.176,0.192-0.991,0.688-0.599,0.798c1.225,0.105,3.048-0.387,3.192,0.799
			c-0.069,0.495-0.755,0.375-0.698,0.997c2.314,0.493,4.226-2,5.986-0.798c0.434,0.297,0.403,0.854,0.698,1.197
			c0.805,0.933,2.073,0.505,2.793-0.3c2.003-2.235,2.361-6.755,2.793-10.275c-0.006-0.061-0.015-0.118-0.1-0.1
			C27.864,66.597,27.333,68.122,26.384,69.138z"/>
	</g>
</g>
</svg>
