<?xml version="1.0" encoding="utf-8"?>
<!-- Generator: Adobe Illustrator 15.1.0, SVG Export Plug-In . SVG Version: 6.00 Build 0)  -->
<!DOCTYPE svg PUBLIC "-//W3C//DTD SVG 1.1//EN" "http://www.w3.org/Graphics/SVG/1.1/DTD/svg11.dtd">
<svg version="1.1" xmlns="http://www.w3.org/2000/svg" xmlns:xlink="http://www.w3.org/1999/xlink" x="0px" y="0px"
	 width="46.971px" height="46.793px" viewBox="0 0 46.971 46.793" enable-background="new 0 0 46.971 46.793" xml:space="preserve">
<g id="Layer_2">
</g>
<g id="Layer_1">
	<g>
		<path fill-rule="evenodd" clip-rule="evenodd" fill="#EC008C" d="M21.423,0.106c7.936-0.73,13.991,2.416,17.813,6
			c3.764,3.529,7.287,9.341,7.688,15.938c0.869,14.335-10.345,24.75-23.438,24.75c-13.028,0-24.313-10.305-23.438-24.75
			c0.521-8.594,4.458-14.055,10.125-18C12.999,2.076,16.351,0.572,21.423,0.106z M4.735,24.856c0.319,4.141,1.832,6.733,3.75,9.938
			c2.221-1.273,4.01-3.635,6.375-6c1.608-1.607,5.826-4.56,6.375-6.563c0.69-2.516,0-6.013,0-9c0-1.485,0-3.092,0-4.5
			c0-1.419,0.454-3.473-0.563-3.938C11.285,6.476,3.928,14.375,4.735,24.856z M25.923,4.793c0,2.802,0,5.87,0,9
			c0,2.875-0.579,6.325,0,8.438c0.55,2.006,4.641,4.828,6.188,6.375c2.258,2.258,4.147,4.57,6.375,6.188
			C47.281,22.734,39.386,6.054,25.923,4.793z M12.235,38.356c2.431,1.757,5.193,3.182,9,3.563c-0.125-4.188,0.25-8.875-0.188-12.75
			C18.251,32.372,14.876,34.997,12.235,38.356z M25.923,41.918c3.783-0.404,6.409-1.966,9-3.563c-2.734-3.328-5.953-6.172-9-9.188
			C25.923,33.418,25.923,37.668,25.923,41.918z"/>
	</g>
</g>
</svg>
