<?xml version="1.0" encoding="utf-8"?>
<!-- Generator: Adobe Illustrator 16.0.0, SVG Export Plug-In . SVG Version: 6.00 Build 0)  -->
<!DOCTYPE svg PUBLIC "-//W3C//DTD SVG 1.1//EN" "http://www.w3.org/Graphics/SVG/1.1/DTD/svg11.dtd">
<svg version="1.1" id="Layer_1" xmlns="http://www.w3.org/2000/svg" xmlns:xlink="http://www.w3.org/1999/xlink" x="0px" y="0px"
	 width="27.625px" height="23.867px" viewBox="0 0 27.625 23.867" enable-background="new 0 0 27.625 23.867" xml:space="preserve">
<path fill-rule="evenodd" clip-rule="evenodd" fill="#F26522" d="M27.098,14.027c-0.268-0.274-0.313-0.498-0.244-0.855
	c0.296-1.535-0.31-2.703-1.724-3.366c-0.32-0.151-0.655-0.309-0.999-0.36c-1.305-0.202-2.614-0.361-3.922-0.535
	c-0.579-0.076-1.164-0.121-1.735-0.234c-0.399-0.08-0.446-0.225-0.305-0.607c0.163-0.441,0.327-0.881,0.502-1.316
	c0.758-1.892,0.373-3.644-0.671-5.299c-0.371-0.588-0.869-1.062-1.535-1.328c-0.971-0.391-2.476,0.18-2.901,1.109
	c-0.02,0.045-0.017,0.1-0.017,0.152c0.251,0.816,0.205,1.662-0.059,2.455c-0.038,0.199-0.078,0.398-0.131,0.596
	c-0.16,0.594-0.376,1.186-0.934,1.527C10.769,6.98,9.676,8.463,9.01,10.236c-0.253,0.672-0.576,0.933-1.233,0.843
	c-0.153-0.021-0.338-0.088-0.433-0.198c-0.261-0.305-0.573-0.448-0.966-0.448c-1.744,0.001-3.488-0.003-5.232,0.001
	c-0.715,0.002-1.143,0.425-1.144,1.139c-0.003,3.68-0.003,7.36,0,11.04c0.001,0.699,0.422,1.12,1.114,1.121
	c2.114,0.003,4.227,0.003,6.341-0.001c0.586,0,0.947-0.342,1.003-0.928c0.007-0.073,0.001-0.148,0.001-0.332
	c0.242,0.102,0.428,0.145,0.576,0.247c1.321,0.919,2.802,1.417,4.391,1.45c2.672,0.059,5.348,0.033,8.021,0.002
	c0.6-0.008,1.218-0.127,1.793-0.305c1.255-0.389,1.928-1.383,1.921-2.67c0-0.114,0.093-0.277,0.193-0.337
	c0.854-0.507,1.337-1.292,1.265-2.237c-0.051-0.67,0.111-1.108,0.502-1.623C27.816,16.089,27.775,14.724,27.098,14.027z"/>
<path fill-rule="evenodd" clip-rule="evenodd" fill="#FFFFFF" d="M8.476,21.499c-0.244-3.123-0.489-6.248-0.737-9.41
	c0.521-0.043,1.01-0.096,1.5-0.117c0.307-0.014,0.44-0.116,0.537-0.441c0.578-1.943,1.583-3.59,3.357-4.693
	c0.845-0.525,1.235-1.387,1.399-2.318c0.139-0.783,0.181-1.591,0.193-2.388c0.012-0.716,0.582-1.253,1.274-1.031
	c0.355,0.114,0.732,0.342,0.963,0.628c1.241,1.535,1.608,3.229,0.765,5.09c-0.157,0.347-0.322,0.69-0.472,1.041
	c-0.378,0.879-0.13,1.503,0.795,1.722c0.874,0.206,1.779,0.274,2.671,0.401c1.106,0.156,2.219,0.277,3.315,0.482
	c0.41,0.077,0.809,0.307,1.165,0.541c0.729,0.478,1.042,1.533,0.702,2.304c-0.107,0.243-0.31,0.444-0.479,0.678
	c0.764,0.31,1.308,0.856,1.188,1.772c-0.117,0.893-0.71,1.363-1.644,1.456c0.495,0.612,0.893,1.221,0.532,2.001
	c-0.33,0.714-0.916,1.063-1.715,1.115c0.019,0.047,0.027,0.095,0.054,0.127c0.642,0.801,0.433,1.874-0.494,2.33
	c-0.357,0.175-0.772,0.32-1.162,0.323c-2.991,0.03-5.984,0.083-8.973-0.005c-1.322-0.039-2.58-0.51-3.649-1.385
	c-0.203-0.165-0.569-0.131-0.86-0.188C8.642,21.522,8.579,21.516,8.476,21.499z"/>
<circle fill-rule="evenodd" clip-rule="evenodd" fill="#FFFFFF" cx="5.436" cy="21.027" r="1.615"/>
</svg>
