<?xml version="1.0" encoding="utf-8"?>
<!-- Generator: Adobe Illustrator 15.1.0, SVG Export Plug-In . SVG Version: 6.00 Build 0)  -->
<!DOCTYPE svg PUBLIC "-//W3C//DTD SVG 1.1//EN" "http://www.w3.org/Graphics/SVG/1.1/DTD/svg11.dtd">
<svg version="1.1" id="Layer_1" xmlns="http://www.w3.org/2000/svg" xmlns:xlink="http://www.w3.org/1999/xlink" x="0px" y="0px"
	 width="81.715px" height="81.814px" viewBox="0 0 81.715 81.814" enable-background="new 0 0 81.715 81.814" xml:space="preserve">
<g>
	<path fill-rule="evenodd" clip-rule="evenodd" fill="#FFFFFF" d="M4.612,20.95c-5.83,10.218-5.802,25.551-1.863,35.411
		c7.284,18.234,32.189,33.678,56.843,20.812c15.582-8.132,26.368-27.267,20.501-47.525c-3.268-11.28-8.426-16.379-14.6-21.122
		c-7.158-5.5-15.811-9.312-27.645-8.387C20.947,1.46,10.203,11.152,4.612,20.95z"/>
	<path fill-rule="evenodd" clip-rule="evenodd" d="M37.848,0.139c11.834-0.925,20.487,2.887,27.645,8.387
		c6.174,4.743,11.332,9.842,14.6,21.122c5.867,20.258-4.919,39.393-20.501,47.525c-24.654,12.866-49.56-2.577-56.843-20.812
		C-1.19,46.501-1.218,31.168,4.612,20.95C10.203,11.152,20.947,1.46,37.848,0.139z M21.075,65.369
		C18.34,51.87,27.604,42.802,36.917,41.14c2.775-0.495,5.854,0.063,9.319-0.932c6.961-1.997,13.38-8.286,14.288-16.463
		C62.131,9.265,51.54-0.27,37.538,0.76C17.292,2.249,1.699,18.339,0.574,38.655c-1.263,22.793,14.037,38.811,35.721,41.624
		C28.202,78.1,22.694,73.361,21.075,65.369z M40.644,66.3c6.412,0,7.168-11.596-0.621-10.561C33.212,56.644,34.611,66.3,40.644,66.3
		z"/>
	<path fill-rule="evenodd" clip-rule="evenodd" fill="#FFFFFF" d="M36.295,80.279C14.611,77.466-0.688,61.449,0.574,38.655
		C1.699,18.339,17.292,2.249,37.538,0.76C51.54-0.27,62.131,9.265,60.523,23.746c-0.908,8.177-7.327,14.466-14.288,16.463
		c-3.465,0.994-6.543,0.437-9.319,0.932C27.604,42.802,18.34,51.87,21.075,65.369C22.694,73.361,28.202,78.1,36.295,80.279z
		 M40.644,26.231c6.412,0,7.168-11.596-0.621-10.561C33.212,16.575,34.611,26.231,40.644,26.231z"/>
	<path fill-rule="evenodd" clip-rule="evenodd" d="M40.022,15.67c7.789-1.035,7.033,10.561,0.621,10.561
		C34.611,26.231,33.212,16.575,40.022,15.67z"/>
	<path fill-rule="evenodd" clip-rule="evenodd" fill="#FFFFFF" d="M40.022,55.74c7.789-1.035,7.033,10.561,0.621,10.561
		C34.611,66.3,33.212,56.644,40.022,55.74z"/>
</g>
</svg>
